<svg width="24" height="24" viewBox="0 0 24 24" fill="none" xmlns="http://www.w3.org/2000/svg">
<path d="M20.69 2.33703C20.095 1.79203 17.685 0.0400277 12.318 0.0170277C12.318 0.0170277 5.98499 -0.361972 2.89999 2.46903C1.18399 4.18503 0.582991 6.69803 0.513991 9.81503C0.444991 12.932 0.36799 18.774 5.99899 20.362H6.00399L5.99899 22.781C5.99899 22.781 5.96199 23.761 6.60599 23.958C7.38399 24.202 7.84399 23.456 8.58899 22.654C8.99699 22.213 9.55899 21.567 9.98599 21.074C10.586 21.133 11.282 21.166 11.987 21.166C13.814 21.166 15.589 20.941 17.285 20.517L17.135 20.549C17.913 20.296 22.315 19.733 23.027 13.892C23.771 7.86203 22.673 4.05803 20.69 2.33703V2.33703ZM21.342 13.452C20.735 18.327 17.169 18.637 16.513 18.847C15.081 19.211 13.437 19.419 11.744 19.419C11.258 19.419 10.776 19.402 10.299 19.368L10.363 19.372C10.363 19.372 7.92499 22.311 7.16599 23.075C6.91799 23.323 6.64499 23.303 6.64999 22.808C6.64999 22.485 6.66899 18.79 6.66899 18.79C1.90199 17.468 2.17799 12.492 2.23399 9.89303C2.28999 7.29403 2.77799 5.15803 4.23099 3.72403C6.84299 1.35703 12.22 1.70803 12.22 1.70803C16.763 1.72703 18.938 3.09603 19.444 3.55503C21.118 4.99003 21.971 8.42203 21.342 13.451V13.452ZM14.831 9.66403V9.67803C14.831 9.84603 14.695 9.98203 14.527 9.98203C14.364 9.98203 14.231 9.85403 14.224 9.69303V9.69203C14.228 9.65003 14.231 9.60003 14.231 9.55103C14.231 8.75003 13.582 8.10103 12.781 8.10103C12.751 8.10103 12.721 8.10203 12.692 8.10403H12.696C12.535 8.09503 12.408 7.96303 12.408 7.80103C12.408 7.63303 12.544 7.49703 12.712 7.49703H12.729H12.728C12.748 7.49603 12.773 7.49603 12.797 7.49603C13.923 7.49603 14.835 8.40803 14.835 9.53403C14.835 9.58003 14.833 9.62603 14.83 9.67103V9.66503L14.831 9.66403ZM15.782 10.195C15.829 8.20703 14.587 6.65103 12.229 6.47703C12.07 6.46603 11.946 6.33403 11.946 6.17403C11.946 6.00603 12.082 5.87003 12.25 5.87003C12.257 5.87003 12.265 5.87003 12.272 5.87103H12.271H12.288C14.555 5.87103 16.394 7.70903 16.394 9.97703C16.394 10.058 16.392 10.139 16.387 10.219L16.388 10.208C16.384 10.373 16.25 10.504 16.085 10.504C15.917 10.504 15.781 10.368 15.781 10.2C15.781 10.197 15.781 10.195 15.781 10.192L15.782 10.195ZM17.982 10.824V10.826C17.982 10.994 17.846 11.13 17.678 11.13C17.51 11.13 17.376 10.995 17.375 10.829C17.351 7.00703 14.802 4.92603 11.713 4.90403C11.545 4.90403 11.41 4.76803 11.41 4.60103C11.41 4.43403 11.546 4.29803 11.713 4.29803C15.172 4.32203 17.952 6.70903 17.98 10.823L17.982 10.824ZM17.457 15.422V15.431C16.951 16.322 16.004 17.306 15.029 16.992L15.02 16.978C13.188 16.294 11.604 15.4 10.189 14.299L10.23 14.329C9.48699 13.737 8.83399 13.084 8.26099 12.366L8.24199 12.341C7.73299 11.703 7.25599 10.989 6.83999 10.235L6.79999 10.156C6.34299 9.41003 5.92999 8.54803 5.60699 7.64303L5.57699 7.54503C5.26299 6.57003 6.24199 5.62303 7.13799 5.11703H7.14699C7.27699 5.03403 7.43499 4.98403 7.60499 4.98403C7.87199 4.98403 8.10999 5.10703 8.26699 5.29803L8.26799 5.30003C8.26799 5.30003 8.84899 5.99303 9.09799 6.33603C9.33199 6.65503 9.64699 7.16603 9.80999 7.45103C9.90399 7.59803 9.95899 7.77803 9.95899 7.97103C9.95899 8.25903 9.83499 8.51803 9.63699 8.69703L9.63599 8.69803L9.07399 9.14803C8.91899 9.29803 8.82299 9.50803 8.82299 9.74003C8.82299 9.76303 8.82399 9.78503 8.82599 9.80703V9.80403C9.40499 11.707 10.874 13.176 12.736 13.745L12.778 13.756C12.797 13.758 12.82 13.759 12.842 13.759C13.074 13.759 13.284 13.663 13.434 13.509L13.884 12.947C14.064 12.748 14.323 12.624 14.611 12.624C14.804 12.624 14.983 12.68 15.135 12.776L15.131 12.774C15.944 13.237 16.647 13.746 17.288 14.323L17.277 14.313C17.469 14.467 17.59 14.702 17.59 14.965C17.59 15.134 17.54 15.291 17.453 15.423L17.455 15.42L17.457 15.422Z" fill="white"/>
</svg>
